HIERARCHY
ROOT joint_0
{
	OFFSET 0.000000 0.000000 0.000000
	CHANNELS 6 Xposition Yposition Zposition Zrotation Yrotation Xrotation 
	JOINT joint_1
	{
		OFFSET 7.566162 2.250183 114.799927
		CHANNELS 3 Zrotation Yrotation Xrotation
		JOINT joint_2
		{
			OFFSET -5.201660 -0.414001 104.936035
			CHANNELS 3 Zrotation Yrotation Xrotation
			JOINT joint_3
			{
				OFFSET -6.923584 -0.419739 104.718018
				CHANNELS 3 Zrotation Yrotation Xrotation
				JOINT joint_4
				{
					OFFSET 3.108887 2.881104 149.449951
					CHANNELS 3 Zrotation Yrotation Xrotation
					JOINT joint_5
					{
						OFFSET 19.988770 5.920349 90.786987
						CHANNELS 3 Zrotation Yrotation Xrotation
						End Site
						{
							OFFSET 0.000000 0.000000 0.000000
						}
					}
				}
				JOINT joint_6
				{
					OFFSET 9.283936 -30.015930 84.410034
					CHANNELS 3 Zrotation Yrotation Xrotation
					JOINT joint_7
					{
						OFFSET 47.243164 -155.716736 -23.241089
						CHANNELS 3 Zrotation Yrotation Xrotation
						JOINT joint_8
						{
							OFFSET 31.323730 -15.356873 -268.798950
							CHANNELS 3 Zrotation Yrotation Xrotation
							JOINT joint_9
							{
								OFFSET 28.122314 -2.114624 -262.450012
								CHANNELS 3 Zrotation Yrotation Xrotation
								End Site
								{
									OFFSET 0.000000 0.000000 0.000000
								}
							}
						}
					}
				}
				JOINT joint_10
				{
					OFFSET -5.580566 33.311218 83.498047
					CHANNELS 3 Zrotation Yrotation Xrotation
					JOINT joint_11
					{
						OFFSET -22.773438 160.515381 -27.138062
						CHANNELS 3 Zrotation Yrotation Xrotation
						JOINT joint_12
						{
							OFFSET 27.004395 30.848877 -267.937988
							CHANNELS 3 Zrotation Yrotation Xrotation
							JOINT joint_13
							{
								OFFSET 32.625000 14.824585 -261.518005
								CHANNELS 3 Zrotation Yrotation Xrotation
								End Site
								{
									OFFSET 0.000000 0.000000 0.000000
								}
							}
						}
					}
				}
			}
		}
	}
	JOINT joint_14
	{
		OFFSET 20.623535 -83.447632 -106.174011
		CHANNELS 3 Zrotation Yrotation Xrotation
		JOINT joint_15
		{
			OFFSET 0.661865 -23.563843 -459.915039
			CHANNELS 3 Zrotation Yrotation Xrotation
			JOINT joint_16
			{
				OFFSET -23.461670 -28.727966 -444.760971
				CHANNELS 3 Zrotation Yrotation Xrotation
				JOINT joint_17
				{
					OFFSET 178.992920 54.047363 -80.113001
					CHANNELS 3 Zrotation Yrotation Xrotation
					End Site
					{
						OFFSET 0.000000 0.000000 0.000000
					}
				}
			}
		}
	}
	JOINT joint_18
	{
		OFFSET -19.571533 84.686279 -105.380005
		CHANNELS 3 Zrotation Yrotation Xrotation
		JOINT joint_19
		{
			OFFSET -22.949951 3.639404 -459.933044
			CHANNELS 3 Zrotation Yrotation Xrotation
			JOINT joint_20
			{
				OFFSET -33.690674 4.092651 -445.010971
				CHANNELS 3 Zrotation Yrotation Xrotation
				JOINT joint_21
				{
					OFFSET 187.419678 18.953857 -76.759001
					CHANNELS 3 Zrotation Yrotation Xrotation
					End Site
					{
						OFFSET 0.000000 0.000000 0.000000
					}
				}
			}
		}
	}
}
MOTION
Frames: 12
Frame Time: 0.016667
-3327.848145 903.801453 1110.807983 -13.569029 2.916994 -0.812062 0.023629 -1.712890 1.338709 -0.017809 0.184652 -0.243940 0.013619 -0.317436 0.219658 0.035956 -0.314408 -0.076172 0.000000 0.000000 0.000000 1.494827 3.620236 -0.499659 0.519153 4.894775 3.062741 -0.156971 2.479392 -1.030377 0.000000 0.000000 0.000000 3.531426 5.035991 -1.415275 -0.144033 3.981236 -4.694813 0.307514 2.859537 0.644783 0.000000 0.000000 0.000000 -0.449881 1.351354 0.594109 -0.265657 -2.871025 0.564832 -0.387389 -1.777507 0.363662 0.000000 0.000000 0.000000 1.169305 -1.410440 -0.634841 1.115857 -0.879112 0.530071 1.119990 -0.579758 0.516911 0.000000 0.000000 0.000000 
-3325.984863 903.820251 1110.598999 -13.605591 3.112911 -0.863677 0.031921 -1.653146 1.311180 -0.006384 0.181971 -0.238399 0.024408 -0.305451 0.213194 0.037192 -0.569851 -0.010035 0.000000 0.000000 0.000000 1.534119 3.633638 -0.439994 0.517653 4.877882 2.996875 -0.153119 2.428808 -0.995642 0.000000 0.000000 0.000000 3.521877 5.015744 -1.458009 -0.138176 3.979233 -4.628330 0.304405 2.832248 0.638705 0.000000 0.000000 0.000000 -0.470007 1.239293 0.601431 -0.288554 -2.878956 0.590119 -0.407575 -1.827087 0.369670 0.000000 0.000000 0.000000 1.182700 -1.483960 -0.617195 1.130208 -0.940063 0.548154 1.134586 -0.633446 0.528280 0.000000 0.000000 0.000000 
-3323.926758 903.856445 1110.365967 -13.639145 3.304366 -0.911141 0.042635 -1.557317 1.277876 0.006895 0.177621 -0.233054 0.036922 -0.289298 0.204628 0.040158 -0.832433 0.051734 0.000000 0.000000 0.000000 1.570462 3.639074 -0.376487 0.513720 4.849913 2.925227 -0.148318 2.342243 -0.956024 0.000000 0.000000 0.000000 3.509765 4.988393 -1.506289 -0.131010 3.971075 -4.564432 0.300385 2.761717 0.655660 0.000000 0.000000 0.000000 -0.474410 1.138654 0.606179 -0.296196 -2.871981 0.606214 -0.410813 -1.896826 0.389323 0.000000 0.000000 0.000000 1.184596 -1.546063 -0.611906 1.132210 -0.993400 0.570085 1.137372 -0.690046 0.535100 0.000000 0.000000 0.000000 
-3321.470215 903.884949 1110.083008 -13.653874 3.543335 -0.964985 0.050838 -1.478541 1.241060 0.018291 0.171656 -0.225963 0.047484 -0.271749 0.196578 0.043268 -1.101872 0.116157 0.000000 0.000000 0.000000 1.605590 3.656578 -0.304602 0.507711 4.823213 2.825974 -0.137135 2.255417 -0.857668 0.000000 0.000000 0.000000 3.497490 4.964024 -1.572207 -0.121098 3.973149 -4.471515 0.291323 2.680621 0.641110 0.000000 0.000000 0.000000 -0.490421 0.999803 0.602346 -0.317383 -2.843181 0.636334 -0.423109 -1.995825 0.413775 0.000000 0.000000 0.000000 1.176167 -1.640237 -0.600716 1.125203 -1.045156 0.582787 1.130567 -0.753274 0.538652 0.000000 0.000000 0.000000 
-3318.608643 903.888367 1109.739014 -13.647767 3.852483 -1.027267 0.055944 -1.440685 1.202830 0.027608 0.165777 -0.220164 0.056157 -0.257979 0.189779 0.045570 -1.378679 0.187625 0.000000 0.000000 0.000000 1.637108 3.686431 -0.204629 0.501370 4.790143 2.693804 -0.124804 2.212867 -0.745351 0.000000 0.000000 0.000000 3.488847 4.936184 -1.662740 -0.110561 3.978938 -4.351047 0.284414 2.643731 0.614243 0.000000 0.000000 0.000000 -0.529899 0.785417 0.585320 -0.366060 -2.767384 0.689091 -0.454335 -2.144277 0.444713 0.000000 0.000000 0.000000 1.156695 -1.793478 -0.574110 1.109989 -1.089825 0.573714 1.113938 -0.827342 0.539264 0.000000 0.000000 0.000000 
-3315.349609 903.886108 1109.344971 -13.622609 4.207707 -1.095317 0.058600 -1.415856 1.161852 0.035109 0.157331 -0.212962 0.062889 -0.245079 0.182777 0.047745 -1.662911 0.263003 0.000000 0.000000 0.000000 1.667273 3.728949 -0.096406 0.493197 4.758987 2.534382 -0.105866 2.168472 -0.574076 0.000000 0.000000 0.000000 3.478810 4.911735 -1.770615 -0.097160 3.995612 -4.201616 0.272503 2.595771 0.556491 0.000000 0.000000 0.000000 -0.581040 0.534634 0.559492 -0.428304 -2.670066 0.755907 -0.494808 -2.319340 0.479583 0.000000 0.000000 0.000000 1.126443 -1.977115 -0.541974 1.085387 -1.133241 0.555907 1.087421 -0.906196 0.536298 0.000000 0.000000 0.000000 
-3311.511963 903.907227 1108.910034 -13.571495 4.589708 -1.172493 0.056903 -1.380849 1.123131 0.038022 0.149732 -0.206488 0.065178 -0.231215 0.176867 0.050724 -1.959051 0.339431 0.000000 0.000000 0.000000 1.702682 3.805463 -0.028150 0.480125 4.763822 2.339279 -0.058047 2.022836 -0.157761 0.000000 0.000000 0.000000 3.462017 4.920863 -1.885548 -0.072527 4.059668 -3.984287 0.230166 2.404827 0.355874 0.000000 0.000000 0.000000 -0.635700 0.313546 0.533681 -0.490898 -2.620718 0.832917 -0.541019 -2.466547 0.503573 0.000000 0.000000 0.000000 1.088671 -2.148896 -0.514450 1.052536 -1.199654 0.553539 1.054171 -0.975523 0.529593 0.000000 0.000000 0.000000 
-3307.072266 903.953613 1108.405029 -13.491935 4.987572 -1.260397 0.048556 -1.315043 1.089635 0.033206 0.139760 -0.200149 0.059658 -0.213605 0.169849 0.055428 -2.276432 0.416121 0.000000 0.000000 0.000000 1.761767 3.909151 0.013475 0.469293 4.792177 2.095888 0.022531 1.893246 0.529719 0.000000 0.000000 0.000000 3.427236 4.956542 -2.019392 -0.036427 4.171621 -3.673372 0.156643 2.124946 -0.038828 0.000000 0.000000 0.000000 -0.691617 0.163564 0.505286 -0.547596 -2.675751 0.930299 -0.593447 -2.550985 0.505992 0.000000 0.000000 0.000000 1.044820 -2.281756 -0.503290 1.010674 -1.315200 0.592022 1.015351 -1.031278 0.519213 0.000000 0.000000 0.000000 
-3302.053467 904.024414 1107.859009 -13.386961 5.411036 -1.356380 0.036575 -1.236289 1.058873 0.024044 0.131284 -0.193589 0.049758 -0.198319 0.162479 0.060808 -2.605772 0.494643 0.000000 0.000000 0.000000 1.824632 4.051301 0.022834 0.460738 4.855186 1.810045 0.137905 1.655343 1.459644 0.000000 0.000000 0.000000 3.384075 5.024867 -2.166223 0.014621 4.333037 -3.287141 0.055560 1.701736 -0.575812 0.000000 0.000000 0.000000 -0.750991 0.045405 0.476423 -0.604294 -2.779997 1.038508 -0.651701 -2.603416 0.496292 0.000000 0.000000 0.000000 0.993419 -2.401039 -0.497072 0.960584 -1.454222 0.646472 0.969737 -1.073569 0.504672 0.000000 0.000000 0.000000 
-3296.347412 904.148193 1107.362061 -13.257312 5.868225 -1.457443 0.025683 -1.166070 1.028640 0.015831 0.122248 -0.187922 0.041039 -0.187389 0.158038 0.064636 -2.929657 0.578072 0.000000 0.000000 0.000000 1.846939 4.282517 -0.072297 0.449293 5.020676 1.494351 0.314806 0.839421 2.735675 0.000000 0.000000 0.000000 3.362661 5.173773 -2.291891 0.098343 4.581187 -2.848195 -0.087690 0.842251 -1.215949 0.000000 0.000000 0.000000 -0.812116 -0.092335 0.462585 -0.665524 -2.835322 1.123373 -0.710222 -2.667123 0.489982 0.000000 0.000000 0.000000 0.933788 -2.538949 -0.471454 0.906075 -1.564517 0.666515 0.917457 -1.096149 0.485391 0.000000 0.000000 0.000000 
-3289.966064 904.400757 1106.886963 -13.108960 6.359374 -1.569645 0.020716 -1.110852 1.007569 0.013046 0.114346 -0.188079 0.038493 -0.185650 0.158616 0.064251 -3.228736 0.670915 0.000000 0.000000 0.000000 1.813458 4.647503 -0.239679 0.444075 5.304017 1.098660 0.566008 -0.746630 4.309087 0.000000 0.000000 0.000000 3.366985 5.395595 -2.422915 0.225075 4.915863 -2.340960 -0.256489 -0.435471 -1.906011 0.000000 0.000000 0.000000 -0.874335 -0.259868 0.472665 -0.731646 -2.825800 1.183297 -0.767891 -2.738321 0.486407 0.000000 0.000000 0.000000 0.865023 -2.709460 -0.410981 0.848417 -1.624075 0.632591 0.858460 -1.099618 0.461412 0.000000 0.000000 0.000000 
-3282.897461 904.706360 1106.459961 -12.936733 6.883692 -1.685556 0.017371 -1.062669 0.987911 0.011729 0.107542 -0.190098 0.037778 -0.191628 0.162528 0.062293 -3.522284 0.766739 0.000000 0.000000 0.000000 1.732824 5.120459 -0.467655 0.476182 5.675346 0.628932 0.908544 -2.940754 6.187183 0.000000 0.000000 0.000000 3.393461 5.689151 -2.558482 0.407613 5.341465 -1.745550 -0.447408 -2.142171 -2.713155 0.000000 0.000000 0.000000 -0.937863 -0.445913 0.497482 -0.801736 -2.768452 1.219853 -0.825431 -2.815688 0.484896 0.000000 0.000000 0.000000 0.788089 -2.897574 -0.331276 0.786474 -1.655907 0.564234 0.793169 -1.077423 0.432255 0.000000 0.000000 0.000000 
